# xmcd CD database file generated by Grip 2.91
# 
# Track frame offsets:
#       150
#       14002
#       28305
#       38955
#       47787
#       59955
#       73292
#       83685
#       96180
#       107867
#       120420
#       131435
#       144185
#       158322
#       169320
#       183152
#       194805
#       203642
# 
# Disc length: 2854 seconds
# 
# Revision: 3
# Processed by: cddbd v1.4b41PL1 Copyright (c) Steve Scherf et al.
# Submitted via: Grip 2.91
# 
DISCID=060b2412
DTITLE=Ray Charles - Blues Is My Middle Name
DYEAR=1900
DGENRE=
TTITLE0=Blues Is My Middle Name
TTITLE1=Walkin' and Talkin'
TTITLE2=Hey Now
TTITLE3=Going Away Blues
TTITLE4=CC Rider
TTITLE5=Alone in the City
TTITLE6=Sitting on Top of the World
TTITLE7=Rocking Chair Blues
TTITLE8=How Long
TTITLE9=You Won't Let Me Go
TTITLE10=Sentimental Blues
TTITLE11=Can Anyone Ask for More
TTITLE12=Kiss Me Baby
TTITLE13=I Wonder Who's Kissing Her Now
TTITLE14=I'm Going Down to the River
TTITLE15=Tell Me Baby
TTITLE16=Easy Riding Gal
TTITLE17=All the Girls in Town
EXTD=
EXTT0=
EXTT1=
EXTT2=
EXTT3=
EXTT4=
EXTT5=
EXTT6=
EXTT7=
EXTT8=
EXTT9=
EXTT10=
EXTT11=
EXTT12=
EXTT13=
EXTT14=
EXTT15=
EXTT16=
EXTT17=
PLAYORDER=
